PathFileType	4	(X/Y/Z)	D:\TRACE\v60_Jaco2_6-2-23\ArmBody_Mo1_DMP_1-platform.trc
DataRate	CameraRate	NumFrames	NumMarkers	Units	OrigDataRate	OrigDataStartFrame	OrigNumFrames
100.00	100.00	      36	5	mm	100.00	4345	      5792
Frame#	Time	Left_Front			Right_Front			Left_Aft			Right_Aft			Post			
		X1	Y1	Z1	X2	Y2	Z2	X3	Y3	Z3	X4	Y4	Z4	X5	Y5	Z5	

4345	43.440				821.83496	-16.31200	-637.93207	-678.06787	24.26636	474.91000	739.83844	30.55355	577.06781	44.53620	1267.45667	-1022.22638	
4346	43.450				822.40363	-16.10075	-637.96387	-677.16528	24.15154	474.87292	740.44281	30.33099	577.17578	45.76508	1267.87964	-1021.76617	
4347	43.460				823.01227	-15.85766	-638.00049	-676.61621	24.07592	474.88110	740.70032	30.11645	577.20898	45.99491	1268.18994	-1021.65417	
4348	43.470				823.42004	-15.73092	-638.05780	-676.38702	24.03667	474.96127	741.03748	29.93551	577.19690	46.38604	1268.43994	-1021.27661	
4349	43.480				824.04657	-15.61308	-637.82159	-676.07666	24.14738	474.91583	741.97302	29.73204	577.29572	47.05679	1268.75513	-1021.06006	
4350	43.490				824.62988	-15.37546	-637.72162	-675.23755	23.96426	474.98590	742.42480	29.49582	577.30396	47.73315	1269.03369	-1020.62061	
4351	43.500				825.00250	-15.31741	-637.91833	-674.62134	23.73555	475.09460	742.94977	29.43285	577.27588	48.34721	1269.41345	-1020.29279	
4352	43.510				825.58936	-15.01660	-637.84070	-674.15259	23.57266	475.28952	743.41016	29.27552	577.31354	48.83084	1269.68018	-1019.67719	
4353	43.520				826.04291	-14.80839	-637.92499	-673.67865	23.48833	475.40964	744.05994	29.18480	577.40289	49.28535	1269.98865	-1019.35162	
4354	43.530				826.51343	-14.76020	-637.86176	-673.05750	23.23598	475.32123	744.44519	28.92967	577.42676	49.83955	1270.32483	-1018.70734	
4355	43.540				827.06329	-14.54314	-637.56366	-672.35876	23.01488	475.30017	744.89655	28.74900	577.57684	49.95537	1270.40149	-1018.20685	
4356	43.550				827.34033	-14.34382	-637.62933	-671.95898	22.81280	475.32401	745.19812	28.67038	577.67670	50.54125	1270.81848	-1017.62830	
4357	43.560				827.93890	-13.91640	-637.46710	-671.65692	22.56671	475.66302	745.54926	28.52621	577.77545	50.76896	1271.24072	-1017.33722	
4358	43.570				827.93591	-13.63023	-637.85724	-671.72675	22.85676	475.60519	746.02753	28.39655	577.83856	51.13906	1271.70081	-1016.82458	
4359	43.580				828.12451	-13.38248	-637.81500	-671.37573	22.66003	475.69385	746.47473	28.09830	577.91724	51.43510	1272.02893	-1016.50574	
4360	43.590				828.40100	-13.10280	-637.83441	-671.00940	22.29618	475.87796	746.97638	27.92642	578.01428	51.90409	1272.37170	-1016.03406	
4361	43.600				828.86108	-12.80714	-637.58575	-670.63342	22.01126	476.06696	747.18970	27.81961	578.14557	52.35884	1272.71912	-1015.50848	
4362	43.610				829.03009	-12.69541	-637.56970	-669.97620	21.42689	476.31989	747.43829	27.57670	578.13226	52.42785	1273.00952	-1015.12463	
4363	43.620				829.28192	-12.48990	-637.46954	-669.55505	21.29719	476.28088	747.64429	27.43277	578.15063	52.77279	1273.36633	-1014.49225	
4364	43.630				829.45807	-12.40951	-637.41638	-669.36096	21.12519	476.37933	747.69989	27.30546	578.16327	52.71199	1273.75403	-1013.88013	
4365	43.640				829.69122	-12.04151	-637.27551	-669.26947	20.97004	476.47913	747.85468	27.11859	578.22601	52.79589	1274.07483	-1013.34216	
4366	43.650				829.90631	-11.81849	-637.22217	-669.18658	20.79475	476.55444	748.10229	26.98838	578.25330	53.11382	1274.32605	-1012.75922	
4367	43.660				830.08832	-11.56801	-637.23492	-669.10291	20.69604	476.59622	748.23126	26.81407	578.35004	53.27667	1274.65173	-1012.15790	
4368	43.670				830.06726	-11.33849	-637.28937	-669.06989	20.74080	476.58371	748.33875	26.53789	578.39929	53.49968	1274.89172	-1011.63544	
4369	43.680				830.08777	-11.01990	-637.19379	-669.33240	21.20534	476.44818	748.39941	26.38032	578.43231	53.59788	1275.35364	-1011.11511	
4370	43.690				830.01129	-10.83859	-637.16016	-669.36316	21.08585	476.47128	748.38727	26.19038	578.55298	53.35786	1275.87219	-1010.88202	
4371	43.700				829.99524	-10.71468	-637.06549	-669.37726	20.85291	476.51019	748.37354	25.97184	578.57831	53.25074	1276.37878	-1010.54620	
4372	43.710				829.92682	-10.53324	-636.98657	-669.36792	20.60852	476.65536	748.30603	25.80282	578.71906	53.22065	1276.67480	-1010.11829	
4373	43.720				830.01788	-10.26690	-636.87219	-669.33795	20.39797	476.79694	748.12109	25.54021	578.78766	53.11311	1276.93323	-1009.60986	
4374	43.730				830.07062	-9.92071	-636.82672	-669.28998	20.15783	476.86243	748.09674	25.33845	578.84894	53.32652	1277.32019	-1009.08032	
4375	43.740				830.23322	-9.40640	-636.75922	-669.28845	19.88406	476.82797	747.99701	25.06191	578.84814	53.52685	1277.90149	-1008.59540	
4376	43.750				830.58337	-8.95131	-636.34637	-669.33148	19.70158	476.83887	747.95258	24.72593	578.90491	53.38398	1278.42139	-1007.97284	
4377	43.760				830.57397	-8.81221	-636.33386	-669.13434	19.24009	476.98410	747.85852	24.42248	578.94397	53.06760	1278.70410	-1007.33038	
4378	43.770				830.49115	-8.72250	-636.35645	-669.14063	19.02881	477.07251	748.16815	24.31589	578.97504	53.11879	1279.04065	-1006.50909	
4379	43.780				830.31677	-8.62179	-636.36859	-669.07434	18.75657	477.17825	748.10583	24.14917	579.06335	53.00272	1279.37976	-1005.92841	
4380	43.790				830.17261	-8.27911	-636.32434	-668.99536	18.41187	477.29868	747.96344	23.95890	579.14203	52.79645	1279.97253	-1005.20905	
